<svg xmlns="http://www.w3.org/2000/svg" viewBox="0 0 120 24" fill="none">
  <g fill="#F5A524">
    <path d="M12 2l2.8 5.7 6.2.9-4.5 4.4 1.1 6.2L12 16.7 6.4 19.2 7.5 13 3 8.6l6.2-.9L12 2z"/>
    <path d="M36 2l2.8 5.7 6.2.9-4.5 4.4 1.1 6.2L36 16.7l-5.6 2.5 1.1-6.2-4.5-4.4 6.2-.9L36 2z"/>
    <path d="M60 2l2.8 5.7 6.2.9-4.5 4.4 1.1 6.2L60 16.7l-5.6 2.5 1.1-6.2-4.5-4.4 6.2-.9L60 2z"/>
    <path d="M84 2l2.8 5.7 6.2.9-4.5 4.4 1.1 6.2L84 16.7l-5.6 2.5 1.1-6.2-4.5-4.4 6.2-.9L84 2z"/>
    <path d="M108 2l2.8 5.7 6.2.9-4.5 4.4 1.1 6.2-5.6-2.5-5.6 2.5 1.1-6.2-4.5-4.4 6.2-.9L108 2z"/>
  </g>
</svg>
